<svg height="480pt" viewBox="0 -16 480.47851 480" width="480pt" xmlns="http://www.w3.org/2000/svg"><path d="m240.460938 184.238281-48-128-48 128 48-40zm0 0" fill="#bddbff"/><path d="m192.460938 328.238281 56-120-56 56-56-56zm0 0" fill="#bddbff"/><path d="m408.460938 320.238281h-80c-4.417969 0-8 3.582031-8 8v64c0 4.417969 3.582031 8 8 8h80c4.417968 0 8-3.582031 8-8v-64c0-4.417969-3.582032-8-8-8zm-64 32" fill="#bddbff"/><g fill="#3d9ae2"><path d="m136.964844 186.886719c.097656.273437.246094.496093.367187.761719.316407.65625.714844 1.265624 1.191407 1.816406.113281.128906.152343.304687.28125.429687l48 48c3.125 3.125 8.1875 3.125 11.3125 0l48-48c.128906-.125.167968-.300781.28125-.429687.472656-.550782.875-1.160156 1.191406-1.816406.117187-.265626.269531-.488282.367187-.761719.351563-.941407.523438-1.9375.503907-2.941407v-.066406c0-.117187-.082032-.222656-.089844-.351562-.039063-.714844-.179688-1.421875-.40625-2.105469l-48-128c-1.167969-3.128906-4.15625-5.203125-7.496094-5.203125s-6.328125 2.074219-7.496094 5.203125l-48 128c-.230468.683594-.367187 1.390625-.40625 2.105469 0 .128906-.082031.234375-.089844.351562v.066406c-.023437 1 .140626 2 .488282 2.941407zm55.496094 34.042969-36.152344-36.152344 36.152344-30.136719 36.152343 30.121094zm0-141.90625 29.886718 79.703124-24.800781-20.640624c-2.964844-2.46875-7.273437-2.46875-10.238281 0l-24.800782 20.640624zm0 0"/><path d="m242.804688 202.582031-50.34375 50.347657-50.34375-50.347657c-2.746094-2.742187-7.066407-3.117187-10.242188-.890625-3.179688 2.226563-4.300781 6.414063-2.664062 9.933594l56 120c1.316406 2.8125 4.144531 4.613281 7.25 4.613281 3.105468 0 5.933593-1.800781 7.246093-4.613281l56-120c1.640625-3.519531.519531-7.707031-2.660156-9.933594-3.179687-2.226562-7.496094-1.851562-10.242187.890625zm-50.34375 106.746094-29.542969-63.320313 23.886719 23.886719c3.125 3.125 8.1875 3.125 11.3125 0l23.886718-23.886719zm0 0"/><path d="m381.683594 225.097656c1.828125-10.519531 2.78125-21.171875 2.855468-31.851562.375-105.964844-85.035156-192.269532-191-193.007813h-1.078124c-106.039063-.253906-192.207032 85.503907-192.460938 191.542969s85.5 192.203125 191.539062 192.457031h1.152344c23.734375.042969 47.261719-4.371093 69.371094-13.007812 17.332031 52.832031 70.800781 84.945312 125.582031 75.433593 54.78125-9.515624 94.289063-57.78125 92.792969-113.359374-1.496094-55.582032-43.539062-101.652344-98.753906-108.207032zm-189.007813 143.140625h-1.015625c-97.203125-.21875-175.820312-79.195312-175.597656-176.398437.21875-97.203125 79.195312-175.820313 176.398438-175.601563h1.007812c97.128906.679688 175.414062 79.789063 175.070312 176.921875-.066406 10.4375-1.046874 20.851563-2.925781 31.121094-2.808593.070312-5.601562.351562-8.320312.621094 9.824219-49.179688-2.863281-100.179688-34.59375-139.019532-31.726563-38.84375-79.164063-61.457031-129.320313-61.644531h-.917968c-92.785157-.234375-168.191407 74.792969-168.425782 167.578125s74.792969 168.1875 167.578125 168.421875h.992188c22.121093-.019531 44.023437-4.414062 64.4375-12.933593.273437 2.773437.601562 5.550781 1.074219 8.289062-20.792969 8.394531-43.015626 12.691406-65.441407 12.644531zm64.105469-38.34375c-20.414062 9.394531-42.609375 14.285157-65.082031 14.34375-83.945313-.207031-151.828125-68.429687-151.617188-152.378906.207031-83.945313 68.429688-151.828125 152.378907-151.621094h.800781c46.507812.113281 90.394531 21.558594 119.058593 58.183594 28.664063 36.628906 38.9375 84.382813 27.867188 129.554687-46.941406 12.324219-80.609375 53.46875-83.40625 101.917969zm111.679688 102.34375c-44.484376.160157-83.203126-30.378906-93.417969-73.679687-6.765625-28.582032-.097657-58.6875 18.105469-81.742188 18.199218-23.054687 45.9375-36.527344 75.3125-36.578125 1.070312 0 2.136718 0 3.199218.066407h.242188v.039062c51.929687 2.367188 92.546875 45.640625 91.613281 97.621094-.933594 51.980468-43.070313 93.773437-95.054687 94.273437zm0 0"/><path d="m408.460938 312.238281v-32c0-8.835937-7.164063-16-16-16h-48c-8.835938 0-16 7.164063-16 16v32c-8.835938 0-16 7.164063-16 16v64c0 8.839844 7.164062 16 16 16h80c8.835937 0 16-7.160156 16-16v-64c0-8.835937-7.164063-16-16-16zm-64-32h48v32h-48zm64 112h-80v-64h80zm0 0"/><path d="m344.460938 360.238281h16v16h16v-16h16v-16h-48zm0 0"/></g></svg>