
<svg width="150px" height="150px" viewBox="0 0 56 56" version="1.1" xmlns="http://www.w3.org/2000/svg" xmlns:xlink="http://www.w3.org/1999/xlink">
    <!-- Generator: Sketch 50.2 (55047) - http://www.bohemiancoding.com/sketch -->
    <desc>Created with Sketch.</desc>
    <defs></defs>
    <g id="symbol" stroke="none" stroke-width="1" fill="none" fill-rule="evenodd">
        <g id="Header" transform="translate(-22.000000, -16.000000)" fill="white" fill-rule="nonzero">
            <g id="Logo" transform="translate(22.000000, 16.000000)">
                <path d="M47.25,34.3450318 L47.25,21.6549682 C52.2363892,20.6389771 56,16.2195435 56,10.9375 C56,4.90649414 51.0935059,0 45.0625,0 C39.0314941,0 34.125,4.90649414 34.125,10.9375 C34.125,11.9180298 34.25531,12.8686523 34.4988404,13.7735596 L19.5405273,21.2529297 C17.5363159,18.703125 14.4246826,17.0625 10.9375,17.0625 C4.90649414,17.0625 0,21.9689941 0,28 C0,34.0310059 4.90649414,38.9375 10.9375,38.9375 C14.4246826,38.9375 17.5363159,37.296875 19.5405273,34.7470703 L34.4988404,42.2264404 C34.25531,43.1313477 34.125,44.0819702 34.125,45.0625 C34.125,51.0935059 39.0314941,56 45.0625,56 C51.0935059,56 56,51.0935059 56,45.0625 C56,39.7804565 52.2363892,35.3610229 47.25,34.3450318 Z M10.5,34 C6.91569005,34 4,31.0843099 4,27.5 C4,23.91569 6.91569005,21 10.5,21 C12.2494141,21 13.8380208,21.6957031 15.0076823,22.8238933 L9.53092453,25.561849 C8.46070961,26.0971679 8.02695313,27.3984375 8.56227211,28.4690755 C9.0975912,29.5392904 10.3992838,29.9726237 11.4690755,29.4377279 L16.9487956,26.6980794 C16.9813802,26.9608725 17,27.2283204 17,27.5 C17,31.08431 14.08431,34 10.5,34 Z M44.5,4 C48.08431,4 51,7.00177614 51,10.6919133 C51,13.6000201 49.1883789,16.0794263 46.6666667,17 L46.6666667,10.6919133 C46.6666667,9.45983443 45.6967448,8.4612755 44.5,8.4612755 C43.3032552,8.4612755 42.3333333,9.45983443 42.3333333,10.6919133 L42.3333333,17 C39.8116211,16.0794263 38,13.6000201 38,10.6919133 C38,7.00177614 40.9156901,4 44.5,4 Z M36.6971035,39 L22.0004199,31.3868042 C22.2392708,30.4657058 22.3673017,29.4980741 22.3673017,28.5 C22.3673017,27.5019259 22.2392708,26.5342942 22,25.6131958 L36.6966838,18 C38.2431287,20.0378977 40.4599516,21.5052187 43,22.0414388 L43,34.9585612 C40.4599516,35.4947813 38.2431287,36.9621023 36.6971035,39 Z M44.5,51 C40.9156901,51 38,48.0843099 38,44.5 C38,44.2283204 38.0186198,43.9608724 38.0512044,43.6980794 L43.5309245,46.4377279 C44.6019857,46.97347 45.9032552,46.5380208 46.4377279,45.4690755 C46.9730469,44.3984375 46.5392904,43.0971679 45.4690755,42.561849 L39.9923177,39.8238933 C41.1619792,38.6957031 42.7505859,38 44.5,38 C48.08431,38 51,40.9156901 51,44.5 C51,48.0843099 48.08431,51 44.5,51 Z" id="Shape"></path>
            </g>
        </g>
    </g>
</svg>