<?xml version="1.0" encoding="UTF-8"?>
<svg width="448px" height="512px" viewBox="0 0 448 512" version="1.1" xmlns="http://www.w3.org/2000/svg" xmlns:xlink="http://www.w3.org/1999/xlink">
    <!-- Generator: Sketch 49.3 (51167) - http://www.bohemiancoding.com/sketch -->
    <title>management</title>
    <desc>Created with Sketch.</desc>
    <defs></defs>
    <g id="Page-1" stroke="none" stroke-width="1" fill="none" fill-rule="evenodd">
        <g id="management" fill="#5C7CFA" fill-rule="nonzero">
            <path d="M341.333,96 L314.432,96 C313.304,92.832 312.015,89.724 310.571,86.688 L329.6,67.659 C333.764,63.494 333.764,56.742 329.6,52.576 L299.424,22.4 C295.259,18.236 288.507,18.236 284.341,22.4 L265.312,41.429 C262.276,39.984 259.168,38.696 256,37.568 L256,10.667 C256,4.776 251.224,0 245.333,0 L202.666,0 C196.776,0 192,4.776 192,10.667 L192,37.568 C188.833,38.692 185.724,39.978 182.688,41.419 L163.659,22.4 C159.494,18.236 152.742,18.236 148.576,22.4 L118.4,52.576 C114.236,56.741 114.236,63.493 118.4,67.659 L137.429,86.688 C135.984,89.724 134.696,92.832 133.568,96 L106.667,96 C100.776,96 96,100.776 96,106.667 L96,149.334 C96,155.225 100.776,160.001 106.667,160.001 L133.568,160.001 C134.692,163.168 135.978,166.277 137.419,169.313 L118.4,188.341 C114.236,192.506 114.236,199.258 118.4,203.424 L148.576,233.6 C152.741,237.764 159.493,237.764 163.659,233.6 L182.688,214.571 C185.724,216.016 188.832,217.304 192,218.432 L192,245.333 C192,251.224 196.776,256 202.667,256 L245.334,256 C251.225,256 256.001,251.224 256.001,245.333 L256.001,218.442 C259.169,217.314 262.277,216.025 265.313,214.581 L284.342,233.6 C288.507,237.764 295.259,237.764 299.425,233.6 L329.601,203.424 C333.765,199.259 333.765,192.507 329.601,188.341 L310.572,169.312 C312.017,166.276 313.305,163.168 314.433,160 L341.334,160 C347.225,160 352.001,155.224 352.001,149.333 L352.001,106.666 C352,100.776 347.224,96 341.333,96 Z M330.667,138.656 L306.55,138.656 C301.687,138.657 297.44,141.947 296.225,146.656 C294.484,153.395 291.809,159.858 288.278,165.856 C285.801,170.048 286.477,175.385 289.921,178.827 L306.988,195.894 L291.905,210.977 L274.838,193.91 C271.396,190.466 266.059,189.79 261.867,192.267 C255.869,195.798 249.406,198.473 242.667,200.214 C237.958,201.43 234.668,205.676 234.667,210.539 L234.667,234.667 L213.334,234.667 L213.345,210.571 C213.344,205.708 210.054,201.461 205.345,200.246 C198.606,198.505 192.143,195.83 186.145,192.299 C181.953,189.822 176.616,190.498 173.174,193.942 L156.107,211.009 L141.024,195.926 L158.091,178.859 C161.535,175.417 162.211,170.08 159.734,165.888 C156.203,159.89 153.528,153.427 151.787,146.688 C150.571,141.979 146.325,138.689 141.462,138.688 L117.334,138.688 L117.334,117.355 L141.473,117.355 C146.336,117.354 150.583,114.064 151.798,109.355 C153.539,102.616 156.214,96.153 159.745,90.155 C162.222,85.963 161.546,80.626 158.102,77.184 L141.035,60.117 L156.096,45.024 L173.163,62.091 C176.605,65.535 181.942,66.211 186.134,63.734 C192.132,60.203 198.595,57.528 205.334,55.787 C210.043,54.571 213.333,50.325 213.334,45.462 L213.334,21.333 L234.667,21.333 L234.667,45.461 C234.661,50.322 237.942,54.572 242.646,55.797 C249.385,57.538 255.848,60.213 261.846,63.744 C266.038,66.221 271.375,65.545 274.817,62.101 L291.884,45.034 L306.977,60.095 L289.91,77.162 C286.466,80.604 285.79,85.941 288.267,90.133 C291.798,96.131 294.473,102.594 296.214,109.333 C297.43,114.042 301.676,117.332 306.539,117.333 L330.667,117.333 L330.667,138.656 Z" id="Shape"></path>
            <path d="M224,85.333 C200.436,85.333 181.333,104.436 181.333,128 C181.333,151.564 200.436,170.667 224,170.667 C247.564,170.667 266.667,151.564 266.667,128 C266.667,104.436 247.564,85.333 224,85.333 Z M224,149.333 C212.218,149.333 202.667,139.782 202.667,128 C202.667,116.218 212.218,106.667 224,106.667 C235.782,106.667 245.333,116.218 245.333,128 C245.333,139.782 235.782,149.333 224,149.333 Z" id="Shape"></path>
            <path d="M149.333,266.667 L149.333,287.691 C149.333,323.2 130.197,352 106.666,352 C83.136,352 64,323.2 64,287.691 L64,268.171 C69.28,248.817 86.613,235.206 106.667,234.667 L106.667,213.334 C76.384,213.834 50.236,234.668 42.987,264.075 C42.775,264.923 42.667,265.793 42.667,266.667 L42.667,287.691 C42.667,335.712 70.784,373.334 106.667,373.334 C142.55,373.334 170.667,335.713 170.667,287.691 L170.667,266.667 L149.333,266.667 Z" id="Shape"></path>
            <path d="M160,373.333 C159.141,373.388 158.28,373.388 157.421,373.333 C146.351,372.621 137.954,363.07 138.667,352 L117.334,352 C117.31,352.815 117.31,353.631 117.334,354.447 C118.01,377.335 137.112,395.343 160.001,394.667 C177.674,394.667 192.001,408.994 192.001,426.667 L192.001,512 L213.334,512 L213.334,426.667 C213.298,397.226 189.441,373.369 160,373.333 Z" id="Shape"></path>
            <path d="M96,352 L74.667,352 C74.721,352.851 74.721,353.705 74.667,354.556 C73.961,365.632 64.41,374.039 53.334,373.333 C23.893,373.369 0.035,397.226 0,426.667 L0,512 L21.333,512 L21.333,426.667 C21.333,408.994 35.66,394.667 53.333,394.667 C54.148,394.691 54.964,394.691 55.78,394.667 C78.669,393.991 96.676,374.889 96,352 Z" id="Shape"></path>
            <rect id="Rectangle-path" x="42.67" y="437.33" width="21.333" height="74.67"></rect>
            <rect id="Rectangle-path" x="149.33" y="437.33" width="21.333" height="74.67"></rect>
            <path d="M405.013,264.075 C397.764,234.668 371.616,213.833 341.333,213.334 L341.333,234.667 C361.382,235.208 378.713,248.813 384,268.16 L384,287.691 C384,323.2 364.864,352 341.333,352 C317.802,352 298.666,323.2 298.666,287.691 L298.666,266.667 L277.333,266.667 L277.333,287.691 C277.333,335.712 305.45,373.334 341.333,373.334 C377.216,373.334 405.333,335.713 405.333,287.691 L405.333,266.667 C405.333,265.793 405.226,264.922 405.013,264.075 Z" id="Shape"></path>
            <path d="M394.667,373.333 C393.808,373.388 392.947,373.388 392.088,373.333 C381.018,372.621 372.621,363.07 373.334,352 L352,352 C351.976,352.815 351.976,353.631 352,354.447 C352.676,377.335 371.778,395.343 394.667,394.667 C412.34,394.667 426.667,408.994 426.667,426.667 L426.667,512 L448,512 L448,426.667 C447.965,397.226 424.107,373.369 394.667,373.333 Z" id="Shape"></path>
            <path d="M330.667,352 L309.334,352 C309.388,352.851 309.388,353.705 309.334,354.556 C308.628,365.632 299.077,374.039 288.001,373.333 C258.56,373.368 234.703,397.226 234.668,426.666 L234.668,512 L256,512 L256,426.667 C256,408.994 270.327,394.667 288,394.667 C288.815,394.691 289.631,394.691 290.447,394.667 C313.335,393.991 331.342,374.889 330.667,352 Z" id="Shape"></path>
            <rect id="Rectangle-path" x="277.33" y="437.33" width="21.333" height="74.67"></rect>
            <rect id="Rectangle-path" x="384" y="437.33" width="21.333" height="74.67"></rect>
            <rect id="Rectangle-path" x="213.33" y="277.33" width="21.333" height="21.333"></rect>
            <rect id="Rectangle-path" x="213.33" y="320" width="21.333" height="21.333"></rect>
            <rect id="Rectangle-path" x="213.33" y="362.67" width="21.333" height="21.333"></rect>
        </g>
    </g>
</svg>