<?xml version="1.0" encoding="UTF-8"?>
<svg width="424px" height="512px" viewBox="0 0 424 512" version="1.1" xmlns="http://www.w3.org/2000/svg" xmlns:xlink="http://www.w3.org/1999/xlink">
    <!-- Generator: Sketch 49.3 (51167) - http://www.bohemiancoding.com/sketch -->
    <title>Untitled</title>
    <desc>Created with Sketch.</desc>
    <defs></defs>
    <g id="Page-1" stroke="none" stroke-width="1" fill="none" fill-rule="evenodd">
        <g id="start" fill="#5C7CFA" fill-rule="nonzero">
            <path d="M212,165.004 C161.824,165.004 121.004,205.824 121.004,256 C121.004,273.666 126.07,290.168 134.817,304.142 C135.083,304.658 135.403,305.153 135.765,305.626 C152.021,330.513 180.12,346.996 212,346.996 C262.176,346.996 302.996,306.175 302.996,256 C302.996,205.825 262.176,165.004 212,165.004 Z M146.288,282.841 C142.891,274.555 141.003,265.496 141.003,256 C141.004,216.852 172.852,185.004 212,185.004 C235.955,185.004 257.16,196.941 270.024,215.167 L215.103,270.088 L194.143,249.129 C190.237,245.224 183.907,245.225 180,249.129 L146.288,282.841 Z M212,326.996 C189.736,326.996 169.842,316.686 156.815,300.599 L187.072,270.342 L208.032,291.301 C211.938,295.206 218.268,295.205 222.175,291.301 L279.487,233.989 C281.755,240.923 282.997,248.317 282.997,255.999 C282.996,295.147 251.147,326.996 212,326.996 Z" id="Shape"></path>
            <path d="M365.845,249.10125 C364.274,200.23325 350.599,152.30925 326.053,109.93425 C299.92,64.82025 262.201,27.26325 216.974,1.32525 C213.894,-0.44175 210.105,-0.44175 207.025,1.32525 C161.799,27.26325 124.08,64.82025 97.946,109.93325 C73.4,152.30825 59.725,200.23225 58.154,249.10025 C23.098,264.14425 0,298.76025 0,337.35125 L0,408.00025 C0,413.52325 4.478,418.00025 10,418.00025 L156.941,418.00025 C159.096,448.07925 172.265,476.88925 193.824,498.13125 L204.981,509.12425 C206.927,511.04125 209.463,512.00025 212,512.00025 C214.537,512.00025 217.072,511.04125 219.019,509.12425 L230.176,498.13125 C251.735,476.88925 264.904,448.08025 267.059,418.00125 L298,418.00125 L298,469.61325 C298,475.13625 302.478,479.61325 308,479.61325 C313.522,479.61325 318,475.13625 318,469.61325 L318,418.00025 L414,418.00025 C419.522,418.00025 424,413.52325 424,408.00025 L424,337.35225 C424,298.76025 400.901,264.14425 365.845,249.10125 Z M212,21.59725 C243.442,40.51625 270.32,65.27025 291.574,94.00025 L132.426,94.00025 C153.68,65.27025 180.558,40.51625 212,21.59725 Z M20,398.00025 L20,337.35125 C20,309.85625 34.81,284.90925 58,271.50725 L58,388.00025 C58,391.50625 58.61,394.87025 59.72,398.00025 L20,398.00025 Z M216.139,483.88425 L212,487.96225 L207.861,483.88425 C190.092,466.37725 179.114,442.74925 177.003,418.00025 L246.997,418.00025 C244.885,442.74925 233.907,466.37725 216.139,483.88425 Z M346,388.00025 C346,393.51425 341.514,398.00025 336,398.00025 L88,398.00025 C82.486,398.00025 78,393.51425 78,388.00025 L78,258.58825 C78,222.37825 85.152,187.09425 98.428,154.50025 L143.707,154.50025 C149.229,154.50025 153.707,150.02325 153.707,144.50025 C153.707,138.97725 149.229,134.50025 143.707,134.50025 L107.513,134.50025 C111.028,127.50825 114.839,120.66925 118.93,114.00025 L305.07,114.00025 C331.355,156.85425 346,206.77225 346,258.58825 L346,388.00025 Z M404,398.00025 L364.28,398.00025 C365.39,394.87025 366,391.50625 366,388.00025 L366,271.50825 C389.19,284.90925 404,309.85625 404,337.35225 L404,398.00025 Z" id="Shape"></path>
            <path d="M187.069,137.43 C185.21,135.57 182.63,134.5 180,134.5 C177.37,134.5 174.79,135.57 172.93,137.43 C171.07,139.29 170,141.87 170,144.5 C170,147.13 171.069,149.71 172.93,151.57 C174.791,153.43 177.37,154.5 180,154.5 C182.63,154.5 185.21,153.43 187.069,151.57 C188.929,149.71 190,147.13 190,144.5 C190,141.87 188.93,139.29 187.069,137.43 Z" id="Shape"></path>
            <path d="M116,444.751 C110.478,444.751 106,449.228 106,454.751 L106,485.557 C106,491.08 110.478,495.557 116,495.557 C121.522,495.557 126,491.08 126,485.557 L126,454.751 C126,449.228 121.522,444.751 116,444.751 Z" id="Shape"></path>
            <path d="M315.069,494.93 C313.21,493.07 310.63,492 308,492 C305.37,492 302.79,493.07 300.93,494.93 C299.07,496.79 298,499.37 298,502 C298,504.63 299.069,507.21 300.93,509.07 C302.791,510.93 305.37,512 308,512 C310.63,512 313.21,510.93 315.069,509.07 C316.929,507.21 318,504.63 318,502 C318,499.37 316.93,496.79 315.069,494.93 Z" id="Shape"></path>
        </g>
    </g>
</svg>